<?xml version="1.0" standalone="no"?>
<!DOCTYPE svg PUBLIC "-//W3C//DTD SVG 20010904//EN"
 "http://www.w3.org/TR/2001/REC-SVG-20010904/DTD/svg10.dtd">
<svg version="1.0" xmlns="http://www.w3.org/2000/svg"
 width="83.000000pt" height="55.000000pt" viewBox="0 0 83.000000 55.000000"
 preserveAspectRatio="xMidYMid meet">

<g transform="translate(0.000000,55.000000) scale(0.100000,-0.100000)"
fill="#000000" stroke="none">
<path d="M130 322 c0 -13 39 -46 46 -39 3 3 3 10 -1 16 -9 15 -45 33 -45 23z"/>
<path d="M661 309 c-24 -23 -23 -33 2 -23 15 5 31 33 24 40 -2 2 -14 -6 -26
-17z"/>
<path d="M200 271 c0 -14 5 -18 20 -14 11 3 20 7 20 9 0 2 -9 8 -20 14 -17 9
-20 8 -20 -9z"/>
<path d="M346 277 c-18 -13 -18 -14 -1 -21 22 -8 28 -3 23 19 -3 14 -5 14 -22
2z"/>
<path d="M405 280 c-4 -6 -3 -16 3 -22 6 -6 12 -6 17 2 4 6 3 16 -3 22 -6 6
-12 6 -17 -2z"/>
<path d="M450 266 c0 -22 2 -23 25 -13 23 11 23 13 8 25 -25 18 -33 15 -33
-12z"/>
<path d="M603 283 c-18 -7 -16 -16 7 -31 18 -11 20 -10 20 13 0 25 -4 28 -27
18z"/>
<path d="M80 270 c0 -5 14 -10 30 -10 17 0 30 5 30 10 0 6 -13 10 -30 10 -16
0 -30 -4 -30 -10z"/>
<path d="M685 270 c-4 -6 8 -10 30 -10 22 0 34 4 30 10 -3 6 -17 10 -30 10
-13 0 -27 -4 -30 -10z"/>
<path d="M151 239 c-12 -12 -20 -24 -16 -27 3 -3 15 4 27 16 28 28 18 38 -11
11z"/>
<path d="M640 251 c0 -12 42 -42 49 -36 5 6 -29 45 -41 45 -4 0 -8 -4 -8 -9z"/>
</g>
</svg>
