<svg xmlns="http://www.w3.org/2000/svg" xmlns:xlink="http://www.w3.org/1999/xlink" version="1.1" x="0px" y="0px" viewBox="0 0 100 100" enable-background="new 0 0 100 100" xml:space="preserve" style="max-width:100%" height="100" width="100" ><g style="" fill="#FF5D28"><path fill="#FF5D28" d="M87.2,21.2c0-2.8-2.3-5.2-5.1-5.2H16.4c-2.8,0-5.1,2.4-5.1,5.2l38.2,27.4L87.2,21.2z" style=""></path><polygon fill="#FF5D28" points="11,30.9 11,58 26.8,42.2  " style=""></polygon><polygon fill="#FF5D28" points="87,58 87,30.9 71.3,42.3  " style=""></polygon><path fill="#FF5D28" d="M49.6,58.2L33.4,46.7L11.6,68.4c0.6,2.2,2.5,3.6,4.9,3.6H19v16.7l0.2-0.1L41.9,72h40.3   c2.3,0,4.3-1.4,4.9-3.6L65.3,46.7L49.6,58.2z" style=""></path></g></svg>