<svg width="1200" height="1136" viewBox="0 0 1200 1136" fill="none" xmlns="http://www.w3.org/2000/svg">
<path fill-rule="evenodd" clip-rule="evenodd" d="M812.781 6.80427C809.213 10.5458 804.267 15.047 801.792 16.8062C799.318 18.5655 796.031 21.6703 794.491 23.7065C791.145 28.1287 784.843 32.5379 779.887 33.9264C777.201 34.6781 774.958 36.6353 771.01 41.6693C763.192 51.6443 759.672 64.72 762.268 74.1462C762.857 76.2844 762.682 76.8951 761.482 76.8951C760.633 76.8951 758.633 78.4775 757.038 80.4107L754.139 83.9273L750.716 81.4113C748.833 80.0289 745.981 78.1086 744.378 77.146C742.773 76.1834 739.789 73.9293 737.745 72.137C735.7 70.3437 730.074 67.0521 725.243 64.821C720.348 62.5609 713.323 58.2026 709.375 54.9799C688.8 38.1767 653.933 20.2549 632.292 15.3598C628.992 14.6131 623.818 13.1247 620.792 12.0532C609.026 7.88283 579.169 4.88104 546.781 4.61115C523.086 4.41423 482.855 6.90723 468.292 9.47419C463.892 10.2499 458.428 10.8926 456.151 10.9036C452.799 10.9176 451.085 11.6893 447.151 14.953C444.478 17.1701 441.167 19.2343 439.792 19.5392C429.05 21.9282 421.107 26.2295 406.792 37.411C401.567 41.4923 393.917 46.7082 389.792 49.0023C385.667 51.2954 378.692 55.2258 374.292 57.7368C369.892 60.2478 362.467 64.3632 357.792 66.8831C353.117 69.4031 347.312 72.9117 344.892 74.68C342.472 76.4483 339.899 77.8947 339.175 77.8947C338.451 77.8947 335.623 79.8789 332.892 82.3049C330.16 84.73 326.936 87.028 325.727 87.4109C322.916 88.3035 309.647 97.2849 307.283 99.8959C305.406 101.969 302.792 102.576 302.792 100.937C302.792 100.416 303.993 96.2553 305.461 91.6912C309.033 80.5906 309.295 64.1882 306.081 53.1117C304.917 49.1023 303.555 45.2788 303.054 44.6151C302.552 43.9513 301.594 41.4923 300.924 39.1503C299.426 33.9144 293.716 27.8608 290.957 28.5815C288.385 29.2542 284.065 26.8902 279.846 22.502C277.95 20.5308 275.744 18.9184 274.942 18.9184C274.14 18.9184 270.615 17.315 267.109 15.3548C261.864 12.423 258.212 11.3484 246.513 9.29727C237.774 7.76488 229.836 6.94521 225.922 7.16912C220.255 7.49299 219.32 7.85185 217.45 10.4168C216.294 12.0022 214.01 14.4522 212.373 15.8596C210.737 17.2671 206.61 20.8926 203.202 23.9164C199.794 26.9402 195.17 30.6387 192.926 32.1341C186.791 36.2245 183.198 41.7982 182.418 48.4325C182.054 51.5233 180.918 55.7056 179.893 57.7268C178.868 59.748 177.719 64.1022 177.341 67.4039C176.772 72.3609 177.028 74.2752 178.808 78.3995C180.309 81.8751 180.807 84.588 180.448 87.3269C179.87 91.7352 181.269 95.1428 185.141 98.7573C186.537 100.062 189.277 105.235 191.229 110.253C195.971 122.441 197.928 125.395 202.969 127.965C205.309 129.158 209.076 132.04 211.34 134.368C218.632 141.868 230.619 144.758 242.797 141.953C258.75 138.279 257.309 143.286 238.357 157.38C224.794 167.466 222.817 169.564 218.804 178.12C216.619 182.779 214.733 185.348 212.742 186.377C211.152 187.199 207.26 189.686 204.093 191.904C197.249 196.695 194.238 196.772 191.306 192.228C189.755 189.826 187.743 188.606 182.555 186.926C178.85 185.726 174.487 183.624 172.859 182.256C169.868 179.74 153.346 174.856 147.828 174.856C146.236 174.856 143.196 173.357 140.451 171.22L135.782 167.584L128.196 168.27C122.356 168.8 119.457 168.575 115.606 167.297C111.354 165.885 109.708 165.812 104.625 166.812C99.6505 167.791 97.2515 167.711 90.3345 166.339C82.6905 164.823 81.7715 164.819 78.9165 166.295C77.2095 167.178 74.9455 169.598 73.8865 171.673C71.6125 176.128 65.2425 182.206 57.3685 187.432C53.7995 189.801 49.8425 193.749 46.6715 198.107C42.4755 203.875 40.6955 205.435 35.9655 207.495C32.8455 208.854 28.8365 210.601 27.0575 211.379C23.3035 213.02 15.6755 222.824 12.0255 230.699C9.88548 235.316 9.62948 236.933 10.1815 242.323C11.0565 250.86 9.42948 257.838 5.73848 261.373C3.47248 263.543 2.79248 265.086 2.79248 268.058C2.79248 270.183 2.06648 275.113 1.17848 279.013C-1.05152 288.815 -0.342518 292.901 5.26148 302.541C9.23748 309.382 9.92248 311.286 9.39248 314.021C7.30248 324.795 7.40948 326.613 10.2775 329.009C19.3255 336.571 21.0735 338.585 24.2965 345.158C26.3275 349.303 28.4525 355.835 29.3745 360.77C32.8605 379.428 42.6545 391.124 56.6665 393.364C60.5285 393.981 60.7345 394.2 61.3565 398.342C61.7135 400.725 62.5205 403.332 63.1495 404.136C64.6945 406.111 83.7135 415.759 86.0635 415.759C87.0935 415.759 89.9445 416.936 92.3985 418.373C96.5775 420.821 97.4765 420.958 106.576 420.529C112.981 420.226 117.314 419.508 119.292 418.421C122.3 416.767 129.208 416.214 132.257 417.383C133.152 417.726 135.034 420.275 136.44 423.047C140.585 431.225 139.507 434.647 125.99 456.21C117.484 469.777 112.477 480.063 107.938 493.293C104.095 504.494 97.7925 528.85 97.7915 532.505C97.7915 533.994 96.4005 538.135 94.7005 541.708C90.3875 550.776 88.0725 566.67 86.5465 597.686C84.9125 630.896 84.8845 670.134 86.4915 674.155C87.1515 675.805 88.6545 681.301 89.8315 686.37C91.8725 695.157 91.8965 695.818 90.3315 700.528C88.6665 705.537 87.4135 706.642 83.3975 706.642C82.1705 706.642 79.8445 708.038 78.2295 709.742C76.6145 711.447 71.2425 716.236 66.2925 720.385C61.3425 724.533 56.7815 728.873 56.1575 730.03C55.5335 731.186 54.7155 734.606 54.3395 737.63C53.9635 740.654 52.9715 745.277 52.1345 747.903C50.7225 752.336 50.7635 753.359 52.7035 762.176C53.8525 767.4 56.0805 774.247 57.6555 777.393C59.2295 780.537 61.0915 784.911 61.7935 787.11C63.5165 792.507 65.8995 795.873 73.6935 803.918C79.0905 809.49 82.4245 811.822 92.0035 816.723C103.239 822.472 108.792 826.951 108.792 830.265C108.792 831.1 107.954 832.977 106.93 834.437C105.807 836.037 104.841 839.668 104.496 843.587C104.181 847.161 102.816 852.784 101.464 856.082C100.112 859.381 98.7055 864.626 98.3385 867.739C97.7225 872.963 97.9535 873.936 101.351 880.42C104.663 886.741 104.92 887.764 103.912 890.654C102.216 895.516 102.431 896.15 107.37 900.881C111.146 904.498 112.459 906.788 114.87 913.959C116.477 918.74 117.792 923.468 117.792 924.466C117.792 926.987 122.994 933.274 128.056 936.872C130.386 938.527 134.317 941.769 136.792 944.075C142.427 949.326 153.897 955.594 164.164 959.034C172.892 961.958 179.999 962.047 200.292 959.484C215.339 957.583 224.605 957.699 228.908 959.841C231.847 961.304 233.194 963.08 236.107 969.337C238.077 973.57 240.672 979.733 241.873 983.031C244.797 991.062 248.865 995.837 260.277 1004.64C272.778 1014.28 277.865 1017.12 285.989 1018.98C293.581 1020.72 308.973 1021 316.7 1019.53C325.452 1017.88 358.516 1018.1 364.839 1019.86C373.93 1022.4 381.731 1022.83 386.668 1021.07C393.613 1018.6 395.733 1019.02 400.311 1023.76C404.784 1028.4 416.693 1038.4 422.167 1042.12C431.049 1048.15 455.038 1054.39 475.126 1055.9C479.435 1056.23 489.784 1057.67 498.126 1059.1C511.132 1061.34 515.358 1061.65 527.792 1061.27C540.078 1060.9 542.929 1061.1 546.456 1062.59C548.745 1063.56 555.711 1065.77 561.935 1067.49C568.159 1069.22 573.846 1071.13 574.573 1071.73C575.526 1072.52 575.713 1074.28 575.246 1078.02C574.61 1083.11 574.684 1083.3 579.118 1088.29C582.708 1092.33 584.19 1095.19 586.313 1102.15C589.237 1111.73 590.395 1113.19 603.087 1123.27C617.755 1134.92 630.786 1137.81 649.531 1133.56C654.613 1132.41 662.21 1131.47 666.413 1131.47C675.216 1131.47 686.034 1128.22 701.695 1120.87C713.159 1115.49 719.408 1110.85 725.175 1103.43C730.936 1096.01 732.839 1095.57 738.139 1100.43C740.423 1102.53 744.699 1105.08 747.641 1106.11C751.82 1107.57 753.401 1108.75 754.87 1111.48C755.903 1113.4 757.375 1115.77 758.144 1116.75C759.627 1118.62 769.101 1122.78 774.566 1123.94C776.367 1124.33 779.26 1125.84 780.995 1127.3C786.045 1131.55 794.227 1131.46 817.297 1126.94C833.103 1123.84 838.307 1123.23 848.292 1123.29C861.717 1123.37 865.266 1122.29 877.31 1114.46C880.62 1112.31 888.111 1108.77 893.957 1106.61C899.803 1104.44 905.741 1101.91 907.154 1100.98C909.534 1099.42 910.188 1099.42 916.071 1100.89C919.563 1101.77 924.062 1102.48 926.068 1102.48C931.633 1102.48 940.807 1106.32 945.521 1110.62C947.846 1112.74 950.688 1114.48 951.836 1114.48C952.984 1114.48 957.761 1116.5 962.453 1118.98C970.414 1123.17 971.496 1123.47 978.644 1123.47C982.857 1123.47 992.151 1122.76 999.298 1121.89C1006.45 1121.02 1015.67 1120.2 1019.79 1120.07C1041.91 1119.39 1068.91 1103.4 1076.53 1086.47C1078.14 1082.88 1079.8 1078.6 1080.21 1076.97C1080.62 1075.33 1083.45 1068.84 1086.5 1062.54C1091.71 1051.77 1092.19 1050.14 1094.42 1035.55C1096.52 1021.73 1097.27 1019.03 1101.18 1011.02C1105.68 1001.82 1106.08 1000.43 1109.88 980.538C1111.98 969.586 1112.02 968.303 1110.8 953.049C1109.69 939.097 1109.17 936.346 1106.78 931.552C1105.27 928.528 1103.06 922.502 1101.88 918.158C1100.69 913.816 1098.89 909.093 1097.89 907.662C1096.88 906.233 1095.76 904.11 1095.4 902.945C1095.04 901.781 1093.85 900.025 1092.77 899.042C1091.68 898.059 1090.79 896.158 1090.79 894.817C1090.79 893.475 1094.13 885.335 1098.2 876.729C1105.99 860.269 1106.53 858.528 1109.83 838.649C1111.55 828.317 1112.49 825.273 1115.34 820.656C1117.22 817.6 1120.95 808.801 1123.62 801.104C1126.29 793.407 1129.22 785.67 1130.13 783.911C1131.05 782.151 1131.79 780.119 1131.79 779.395C1131.79 778.67 1132.91 776.439 1134.27 774.437C1135.63 772.435 1137.15 768.984 1137.65 766.768C1138.15 764.553 1139.51 761.519 1140.69 760.027C1141.86 758.535 1143.98 753.448 1145.4 748.721C1146.82 743.995 1149.29 737.774 1150.89 734.896C1152.49 732.018 1153.79 728.793 1153.79 727.73C1153.79 726.666 1154.44 724.523 1155.23 722.967C1159.32 714.882 1164.8 694.239 1167.24 677.654C1170.63 654.636 1171.42 650.639 1174.44 641.279C1176.3 635.512 1176.81 632.278 1176.36 629.244C1175.97 626.679 1176.27 623.575 1177.14 621.113C1178.07 618.474 1178.31 615.583 1177.85 612.539C1177.46 610.014 1177.48 607.065 1177.88 605.987C1178.28 604.907 1178.9 599.112 1179.27 593.109C1179.88 583.091 1179.73 581.616 1177.47 575.195C1176.11 571.347 1174.47 565.499 1173.82 562.2C1173.18 558.902 1170.9 550.355 1168.75 543.208C1166.61 536.061 1164.16 527.208 1163.32 523.536C1162.47 519.862 1160.21 513.578 1158.29 509.569C1156.36 505.561 1154.79 501.659 1154.79 500.899C1154.79 500.139 1151.62 490.103 1147.75 478.597C1142.3 462.418 1140.28 454.796 1138.84 444.964C1133.35 407.491 1123.71 370.6 1112.79 345.287C1110.18 339.24 1107.48 332.492 1106.8 330.293C1104.85 323.98 1095.48 305.67 1090.08 297.637C1087.37 293.607 1083.48 287.104 1081.42 283.184C1079.36 279.266 1075.11 273.055 1071.98 269.383C1068.85 265.71 1064.82 260.819 1063.02 258.514C1055.22 248.536 1053.22 246.443 1045.47 240.195C1040.97 236.567 1035.23 231.064 1032.71 227.967C1024.89 218.364 1014.87 208.657 999.792 196.092C991.818 189.446 983.267 181.825 980.792 179.155C977.17 175.249 974.75 173.74 968.387 171.422C963.458 169.627 958.424 166.867 955.017 164.093C952.011 161.645 947.469 158.741 944.922 157.639C939.336 155.219 933.792 150.192 933.792 147.544C933.792 146.482 935.558 142.41 937.717 138.493C939.876 134.577 942.305 129.574 943.115 127.375C943.925 125.176 945.531 121.017 946.685 118.135C947.914 115.056 949.419 107.379 950.328 99.537L951.878 86.1824L948.269 77.9797C946.285 73.4685 944.221 66.9931 943.68 63.5895C943.14 60.1868 941.381 54.858 939.771 51.7472C938.162 48.6365 936.548 44.2352 936.185 41.9661C934.917 34.0363 929.247 29.914 919.609 29.914C914.502 29.914 914.214 29.757 908.827 24.0343C905.138 20.1159 901.958 17.7419 899.292 16.9142C897.092 16.2315 894.392 14.882 893.292 13.9144C890.034 11.0486 885.749 9.28727 877.792 7.54197C873.667 6.63733 869.054 5.25489 867.54 4.4692C864.712 3.00179 849.714 1.40743 830.281 0.509795L819.271 0L812.781 6.80427ZM1111.64 175.534C1110.73 175.77 1108.73 177.778 1107.19 179.995C1105.66 182.212 1102.53 185.31 1100.25 186.879C1097.97 188.448 1094.79 191.228 1093.18 193.057C1091.58 194.886 1088.18 197.602 1085.64 199.092C1078.93 203.02 1074.79 209.686 1074.79 216.56C1074.79 219.517 1074.12 223.244 1073.29 224.844C1072.46 226.443 1071.32 231.097 1070.75 235.186C1069.79 242.063 1069.88 242.941 1071.96 246.928C1073.51 249.891 1074.15 252.699 1074.01 255.911C1073.87 259.145 1074.29 260.988 1075.38 261.895C1078.63 264.587 1082.82 271.829 1084.2 277.119C1084.98 280.125 1086.33 283.946 1087.19 285.608C1089.03 289.163 1095.34 294.631 1098.54 295.449C1099.78 295.765 1100.79 296.67 1100.79 297.461C1100.79 300.195 1105.4 303.479 1113.66 306.633C1123.37 310.337 1125.19 310.424 1137.69 307.786C1142.87 306.696 1150.19 305.803 1153.98 305.803C1161.94 305.803 1166.39 303.919 1176.77 296.143L1183.25 291.291L1185.28 282.721C1186.58 277.19 1188.29 272.856 1190.09 270.496C1191.62 268.486 1194.43 262.144 1196.33 256.403C1201.41 241.09 1201.21 234.738 1195.1 216.017C1189.36 198.43 1187.05 195.296 1180.54 196.233C1175.58 196.946 1175.16 196.706 1171.52 191.099C1170 188.762 1168.17 186.851 1167.44 186.851C1166.71 186.851 1161.71 185.014 1156.33 182.769C1150.37 180.28 1144.36 178.501 1140.93 178.213C1137.83 177.954 1133.49 177.343 1131.29 176.856C1126.44 175.781 1113.93 174.941 1111.64 175.534ZM363.475 660.849C363.156 661.645 362.919 661.408 362.871 660.244C362.828 659.19 363.064 658.601 363.396 658.932C363.728 659.264 363.764 660.127 363.475 660.849Z" fill="white"/>
<circle cx="599.663" cy="567.796" r="415.37" stroke="#F7F6F0" stroke-width="25"/>
<path d="M751.473 811H445.218C433.494 810.986 422.253 806.336 413.964 798.069C405.674 789.802 401.012 778.595 401 766.905V702.06C401 700.103 401.78 698.226 403.168 696.843C404.555 695.459 406.438 694.681 408.401 694.681H474.65V331.381C474.649 329.904 475.094 328.46 475.925 327.237C476.757 326.014 477.938 325.069 479.315 324.523C480.692 323.976 482.202 323.855 483.648 324.174C485.095 324.493 486.413 325.238 487.43 326.312L521.769 362.608L553.591 326.511C554.273 325.737 555.11 325.114 556.048 324.682C556.986 324.25 558.005 324.019 559.038 324.003C560.065 323.997 561.084 324.199 562.031 324.596C562.979 324.993 563.836 325.577 564.551 326.312L598.926 362.608L630.749 326.511C631.427 325.741 632.259 325.12 633.192 324.688C634.125 324.256 635.138 324.023 636.166 324.003C637.193 324.001 638.21 324.204 639.157 324.601C640.104 324.997 640.962 325.579 641.679 326.312L676.055 362.608L707.877 326.511C708.555 325.741 709.387 325.12 710.32 324.688C711.253 324.256 712.266 324.023 713.294 324.003C714.32 324.004 715.337 324.209 716.283 324.606C717.23 325.002 718.088 325.582 718.807 326.312L753.405 362.822L785.227 329.249C786.244 328.178 787.561 327.436 789.006 327.118C790.451 326.8 791.958 326.921 793.333 327.466C794.708 328.011 795.888 328.955 796.72 330.175C797.552 331.395 797.997 332.835 798 334.311V764.661C797.986 776.956 793.078 788.742 784.354 797.431C775.63 806.12 763.804 811 751.473 811ZM478.209 796.243H751.473C759.871 796.233 767.921 792.902 773.859 786.982C779.797 781.061 783.137 773.034 783.147 764.661V352.876L758.726 378.628C757.298 380.049 755.363 380.847 753.345 380.847C751.328 380.847 749.393 380.049 747.965 378.628L713.619 342.331L681.797 378.436C681.118 379.207 680.285 379.829 679.35 380.261C678.416 380.693 677.402 380.926 676.373 380.944C674.299 380.924 672.316 380.092 670.852 378.628L636.477 342.331L604.654 378.436C603.975 379.207 603.142 379.829 602.208 380.261C601.274 380.693 600.259 380.926 599.23 380.944C598.203 380.941 597.187 380.735 596.24 380.337C595.294 379.939 594.436 379.358 593.717 378.628L559.363 342.331L527.541 378.436C526.862 379.207 526.028 379.829 525.094 380.261C524.16 380.693 523.146 380.926 522.117 380.944C520.039 380.912 518.055 380.073 516.588 378.605L489.429 349.924V766.905C489.447 777.729 485.451 788.178 478.209 796.243ZM415.801 709.439V766.905C415.801 770.757 416.562 774.572 418.041 778.132C419.52 781.691 421.687 784.925 424.419 787.65C427.152 790.374 430.395 792.535 433.965 794.009C437.535 795.484 441.361 796.243 445.225 796.243C449.089 796.243 452.916 795.484 456.486 794.009C460.056 792.535 463.299 790.374 466.032 787.65C468.764 784.925 470.931 781.691 472.41 778.132C473.889 774.572 474.65 770.757 474.65 766.905V709.439H415.801Z" fill="#FF5D28"/>
<path d="M733.549 735.22H606.786C604.823 735.22 602.941 734.443 601.553 733.059C600.165 731.675 599.385 729.798 599.385 727.841C599.385 725.885 600.165 724.008 601.553 722.624C602.941 721.24 604.823 720.463 606.786 720.463H733.549C735.512 720.463 737.394 721.24 738.782 722.624C740.17 724.008 740.95 725.885 740.95 727.841C740.95 729.798 740.17 731.675 738.782 733.059C737.394 734.443 735.512 735.22 733.549 735.22Z" fill="#FF5D28"/>
<path d="M551.312 735.22H535.031C533.068 735.22 531.185 734.443 529.798 733.059C528.41 731.675 527.63 729.798 527.63 727.841C527.63 725.885 528.41 724.008 529.798 722.624C531.185 721.24 533.068 720.463 535.031 720.463H551.312C553.274 720.463 555.157 721.24 556.545 722.624C557.932 724.008 558.712 725.885 558.712 727.841C558.712 729.798 557.932 731.675 556.545 733.059C555.157 734.443 553.274 735.22 551.312 735.22Z" fill="#FF5D28"/>
<path d="M733.549 676.633H606.786C604.823 676.633 602.941 675.856 601.553 674.472C600.165 673.088 599.385 671.211 599.385 669.254C599.385 667.297 600.165 665.421 601.553 664.037C602.941 662.653 604.823 661.876 606.786 661.876H733.549C735.512 661.876 737.394 662.653 738.782 664.037C740.17 665.421 740.95 667.297 740.95 669.254C740.95 671.211 740.17 673.088 738.782 674.472C737.394 675.856 735.512 676.633 733.549 676.633Z" fill="#FF5D28"/>
<path d="M551.312 676.633H535.031C533.068 676.633 531.185 675.856 529.798 674.472C528.41 673.088 527.63 671.211 527.63 669.254C527.63 667.297 528.41 665.421 529.798 664.037C531.185 662.653 533.068 661.876 535.031 661.876H551.312C553.274 661.876 555.157 662.653 556.545 664.037C557.932 665.421 558.712 667.297 558.712 669.254C558.712 671.211 557.932 673.088 556.545 674.472C555.157 675.856 553.274 676.633 551.312 676.633Z" fill="#FF5D28"/>
<path d="M733.549 618.046H606.786C604.823 618.046 602.941 617.268 601.553 615.885C600.165 614.501 599.385 612.624 599.385 610.667C599.385 608.71 600.165 606.833 601.553 605.449C602.941 604.066 604.823 603.288 606.786 603.288H733.549C735.512 603.288 737.394 604.066 738.782 605.449C740.17 606.833 740.95 608.71 740.95 610.667C740.95 612.624 740.17 614.501 738.782 615.885C737.394 617.268 735.512 618.046 733.549 618.046Z" fill="#FF5D28"/>
<path d="M551.312 618.046H535.031C533.068 618.046 531.185 617.268 529.798 615.885C528.41 614.501 527.63 612.624 527.63 610.667C527.63 608.71 528.41 606.833 529.798 605.449C531.185 604.066 533.068 603.288 535.031 603.288H551.312C553.274 603.288 555.157 604.066 556.545 605.449C557.932 606.833 558.712 608.71 558.712 610.667C558.712 612.624 557.932 614.501 556.545 615.885C555.157 617.268 553.274 618.046 551.312 618.046Z" fill="#FF5D28"/>
<path d="M636.188 541.336C627.34 541.325 618.857 537.815 612.6 531.576C606.344 525.338 602.824 516.88 602.812 508.058C602.812 506.101 603.591 504.224 604.979 502.841C606.367 501.457 608.25 500.679 610.212 500.679C612.175 500.679 614.057 501.457 615.445 502.841C616.833 504.224 617.613 506.101 617.613 508.058C617.635 511.743 618.752 515.339 620.824 518.39C622.895 521.442 625.828 523.812 629.251 525.202C632.673 526.592 636.433 526.939 640.053 526.199C643.674 525.458 646.992 523.664 649.59 521.043C652.188 518.422 653.948 515.092 654.647 511.473C655.347 507.855 654.954 504.111 653.52 500.715C652.085 497.319 649.673 494.424 646.588 492.395C643.503 490.366 639.884 489.294 636.188 489.316C629.563 489.296 623.092 487.316 617.596 483.628C612.099 479.94 607.823 474.709 605.309 468.597C602.795 462.485 602.156 455.767 603.472 449.293C604.789 442.819 608.002 436.88 612.705 432.227C617.408 427.574 623.389 424.416 629.892 423.154C636.396 421.892 643.128 422.581 649.238 425.135C655.349 427.689 660.562 431.992 664.218 437.501C667.874 443.01 669.81 449.476 669.779 456.082C669.779 458.039 668.999 459.916 667.611 461.3C666.224 462.684 664.341 463.461 662.378 463.461C660.416 463.461 658.533 462.684 657.145 461.3C655.758 459.916 654.978 458.039 654.978 456.082C655.003 452.397 653.931 448.787 651.898 445.709C649.864 442.631 646.961 440.224 643.556 438.791C640.15 437.358 636.394 436.965 632.764 437.661C629.135 438.357 625.793 440.11 623.163 442.7C620.533 445.289 618.732 448.598 617.988 452.208C617.244 455.818 617.591 459.567 618.985 462.981C620.378 466.395 622.756 469.319 625.817 471.386C628.878 473.452 632.484 474.566 636.181 474.588C645.062 474.588 653.58 478.106 659.86 484.367C666.14 490.629 669.668 499.122 669.668 507.977C669.668 516.832 666.14 525.325 659.86 531.586C653.58 537.848 645.062 541.366 636.181 541.366L636.188 541.336Z" fill="#FF5D28"/>
<path d="M636.314 551.733C634.351 551.733 632.469 550.956 631.081 549.572C629.693 548.188 628.913 546.311 628.913 544.354V533.921C628.913 531.964 629.693 530.087 631.081 528.703C632.469 527.319 634.351 526.542 636.314 526.542C638.277 526.542 640.159 527.319 641.547 528.703C642.935 530.087 643.714 531.964 643.714 533.921V544.354C643.714 546.311 642.935 548.188 641.547 549.572C640.159 550.956 638.277 551.733 636.314 551.733Z" fill="#FF5D28"/>
<path d="M636.314 437.34C634.351 437.34 632.469 436.563 631.081 435.179C629.693 433.795 628.913 431.918 628.913 429.961V419.528C628.913 417.571 629.693 415.694 631.081 414.31C632.469 412.927 634.351 412.149 636.314 412.149C638.277 412.149 640.159 412.927 641.547 414.31C642.935 415.694 643.714 417.571 643.714 419.528V429.961C643.714 431.918 642.935 433.795 641.547 435.179C640.159 436.563 638.277 437.34 636.314 437.34Z" fill="#FF5D28"/>
</svg>
